# xmcd
#
# Track frame offsets:
# 150
# 15918
# 27482
# 46798
# 60010
# 76128
# 91482
# 104660
# 116762
# 128860
# 144461
# 164335
# 181591
# 201310
#
# Disc length: 2868 seconds
#
#
# Revision: 0
# Processed by: cddbd v1.5.1PL0 Copyright (c) Steve Scherf et al.
# Submitted via: FreeRIP 2.52 
#
DISCID=ad0b320e
DTITLE=David Ralston - The Lucidity of Insanity
DYEAR=2004
DGENRE=Blues
TTITLE0=Okinawa
TTITLE1=Just Love Me Baby
TTITLE2=Turn Back The Pages of Time
TTITLE3=The One
TTITLE4=I Don't Want To Be
TTITLE5=Kanako's Song - Erabu Yuri Nu Hana
TTITLE6=We Were All Wrong
TTITLE7=A Woman That Loves Me
TTITLE8=Back To Hell
TTITLE9=Hold Me
TTITLE10=So Tired - Movin' On
TTITLE11=Do You Ever?
TTITLE12=Means The World To Me
TTITLE13=Empathy
EXTD=www.davidralston.com
EXTT0=
EXTT1=
EXTT2=
EXTT3=
EXTT4=
EXTT5=
EXTT6=
EXTT7=
EXTT8=
EXTT9=
EXTT10=
EXTT11=
EXTT12=
EXTT13=
PLAYORDER=
